<svg xmlns="http://www.w3.org/2000/svg" xmlns:xlink="http://www.w3.org/1999/xlink" width="500" zoomAndPan="magnify" viewBox="0 0 375 374.999991" height="500" preserveAspectRatio="xMidYMid meet" version="1.0"><defs><g/><clipPath id="eeab09a5f7"><path d="M 184.464844 146 L 322 146 L 322 160 L 184.464844 160 Z M 184.464844 146 " clip-rule="nonzero"/></clipPath></defs><g clip-path="url(#eeab09a5f7)"><path fill="#000000" d="M 185.367188 153.867188 C 184.988281 154.457031 184.472656 153.992188 184.800781 153.472656 C 196.898438 134.382812 204.488281 160.277344 228.808594 158.105469 C 266.257812 154.757812 297.558594 144.074219 320.859375 153.273438 C 322.480469 153.914062 321.339844 155.257812 319.96875 154.632812 C 300.578125 145.730469 264.554688 155.050781 228.648438 158.828125 C 204.316406 161.386719 197.4375 135.089844 185.367188 153.867188 Z M 185.367188 153.867188 " fill-opacity="1" fill-rule="nonzero"/></g><g fill="#000000" fill-opacity="1"><g transform="translate(61.053515, 166.437227)"><g><path d="M 73.199219 -8.398438 C 64.199219 -4.800781 76.921875 -39.960938 73.800781 -48.660156 C 72.960938 -51 71.160156 -52.078125 68.941406 -50.699219 C 61.921875 -46.320312 51.71875 -21.660156 44.941406 -2.28125 C 49.679688 -25.378906 55.800781 -56.339844 40.019531 -57.421875 C 28.679688 -58.199219 19.199219 -44.460938 19.261719 -30 C 4.441406 -36.359375 -4.199219 -24.179688 1.980469 -14.101562 L 3.539062 -14.101562 C -3.058594 -22.441406 3.539062 -35.398438 19.140625 -29.160156 C 19.378906 -15.480469 24.601562 -9.71875 29.160156 -10.320312 C 33.480469 -10.921875 36.71875 -21.359375 20.460938 -29.699219 C 20.039062 -42.539062 28.980469 -57.71875 40.019531 -56.460938 C 60.238281 -54.179688 33.421875 10.800781 37.859375 21 C 38.820312 23.21875 41.761719 23.039062 41.460938 20.339844 C 41.160156 17.640625 42.238281 13.621094 43.738281 7.558594 C 50.820312 -20.578125 64.800781 -48.359375 69.601562 -49.859375 C 74.699219 -51.480469 58.621094 -11.160156 71.160156 -6.898438 C 77.160156 -4.859375 90.78125 -31.5 98.820312 -45.238281 C 97.738281 -24.960938 82.5 16.558594 94.621094 20.699219 C 101.519531 23.039062 118.320312 -3.71875 125.28125 -14.039062 C 125.28125 -14.339844 124.5 -14.460938 124.261719 -14.160156 C 121.378906 -10.859375 105.898438 15.78125 96.421875 19.558594 C 86.699219 23.398438 106.441406 -38.160156 102.179688 -46.378906 C 101.640625 -47.398438 99.601562 -48.238281 97.441406 -45.058594 C 92.339844 -36.539062 79.320312 -10.859375 73.199219 -8.398438 Z M 29.519531 -11.160156 C 26.101562 -10.378906 21.121094 -13.378906 20.28125 -28.679688 C 34.738281 -20.941406 32.28125 -11.820312 29.519531 -11.160156 Z M 29.519531 -11.160156 "/></g></g></g><g fill="#000000" fill-opacity="1"><g transform="translate(65.545465, 207.263996)"><g><path d="M 8.234375 -7.453125 L 8.234375 0 L 7.265625 0 L 7.265625 -4.6875 L 4.609375 -0.90625 L 4.59375 -0.90625 L 1.984375 -4.546875 L 1.984375 0 L 1.046875 0 L 1.046875 -7.453125 L 4.609375 -2.421875 L 8.21875 -7.453125 Z M 8.234375 -7.453125 "/></g></g></g><g fill="#000000" fill-opacity="1"><g transform="translate(74.811814, 207.263996)"><g><path d="M 0.59375 -3.609375 C 0.59375 -4.265625 0.757812 -4.875 1.09375 -5.4375 C 1.425781 -6.007812 1.875 -6.460938 2.4375 -6.796875 C 3 -7.140625 3.613281 -7.3125 4.28125 -7.3125 C 4.9375 -7.3125 5.546875 -7.140625 6.109375 -6.796875 C 6.679688 -6.460938 7.132812 -6.007812 7.46875 -5.4375 C 7.8125 -4.875 7.984375 -4.265625 7.984375 -3.609375 C 7.984375 -2.941406 7.816406 -2.320312 7.484375 -1.75 C 7.148438 -1.1875 6.695312 -0.738281 6.125 -0.40625 C 5.550781 -0.0820312 4.9375 0.078125 4.28125 0.078125 C 3.613281 0.078125 2.992188 -0.0820312 2.421875 -0.40625 C 1.859375 -0.738281 1.410156 -1.1875 1.078125 -1.75 C 0.753906 -2.3125 0.59375 -2.929688 0.59375 -3.609375 Z M 1.59375 -3.59375 C 1.59375 -3.101562 1.710938 -2.644531 1.953125 -2.21875 C 2.191406 -1.800781 2.519531 -1.46875 2.9375 -1.21875 C 3.351562 -0.976562 3.804688 -0.859375 4.296875 -0.859375 C 4.796875 -0.859375 5.25 -0.976562 5.65625 -1.21875 C 6.0625 -1.46875 6.382812 -1.800781 6.625 -2.21875 C 6.863281 -2.644531 6.984375 -3.109375 6.984375 -3.609375 C 6.984375 -4.109375 6.863281 -4.570312 6.625 -5 C 6.382812 -5.425781 6.054688 -5.757812 5.640625 -6 C 5.222656 -6.25 4.769531 -6.375 4.28125 -6.375 C 3.789062 -6.375 3.335938 -6.25 2.921875 -6 C 2.503906 -5.75 2.175781 -5.410156 1.9375 -4.984375 C 1.707031 -4.554688 1.59375 -4.09375 1.59375 -3.59375 Z M 1.59375 -3.59375 "/></g></g></g><g fill="#000000" fill-opacity="1"><g transform="translate(83.378437, 207.263996)"><g><path d="M 5.015625 0 L 3.3125 -2.671875 C 3.257812 -2.660156 3.179688 -2.65625 3.078125 -2.65625 L 2.015625 -2.65625 L 2.015625 0 L 1.046875 0 L 1.046875 -7.234375 L 2.96875 -7.234375 C 3.457031 -7.234375 3.894531 -7.144531 4.28125 -6.96875 C 4.675781 -6.789062 4.984375 -6.535156 5.203125 -6.203125 C 5.421875 -5.867188 5.53125 -5.460938 5.53125 -4.984375 C 5.53125 -4.535156 5.429688 -4.125 5.234375 -3.75 C 5.035156 -3.382812 4.734375 -3.101562 4.328125 -2.90625 L 6.15625 0 Z M 3.0625 -3.59375 C 3.582031 -3.59375 3.957031 -3.726562 4.1875 -4 C 4.414062 -4.28125 4.53125 -4.597656 4.53125 -4.953125 C 4.53125 -5.160156 4.476562 -5.367188 4.375 -5.578125 C 4.28125 -5.785156 4.128906 -5.957031 3.921875 -6.09375 C 3.710938 -6.226562 3.445312 -6.296875 3.125 -6.296875 L 2.015625 -6.296875 L 2.015625 -3.59375 Z M 3.0625 -3.59375 "/></g></g></g><g fill="#000000" fill-opacity="1"><g transform="translate(89.975829, 207.263996)"><g><path d="M 5.3125 -7.234375 L 5.3125 -6.296875 L 3.375 -6.296875 L 3.375 0 L 2.40625 0 L 2.40625 -6.296875 L 0.515625 -6.296875 L 0.515625 -7.234375 Z M 5.3125 -7.234375 "/></g></g></g><g fill="#000000" fill-opacity="1"><g transform="translate(95.793536, 207.263996)"><g><path d="M 6.703125 -0.625 C 6.484375 -0.445312 6.140625 -0.285156 5.671875 -0.140625 C 5.203125 0.00390625 4.769531 0.078125 4.375 0.078125 C 3.613281 0.078125 2.945312 -0.0703125 2.375 -0.375 C 1.800781 -0.6875 1.359375 -1.113281 1.046875 -1.65625 C 0.742188 -2.195312 0.59375 -2.804688 0.59375 -3.484375 C 0.59375 -4.265625 0.757812 -4.941406 1.09375 -5.515625 C 1.425781 -6.097656 1.875 -6.539062 2.4375 -6.84375 C 3.007812 -7.15625 3.628906 -7.3125 4.296875 -7.3125 C 4.703125 -7.3125 5.082031 -7.257812 5.4375 -7.15625 C 5.800781 -7.0625 6.128906 -6.9375 6.421875 -6.78125 L 6.09375 -5.890625 C 5.882812 -6.003906 5.617188 -6.109375 5.296875 -6.203125 C 4.972656 -6.296875 4.679688 -6.34375 4.421875 -6.34375 C 3.859375 -6.34375 3.363281 -6.226562 2.9375 -6 C 2.507812 -5.769531 2.175781 -5.445312 1.9375 -5.03125 C 1.707031 -4.613281 1.59375 -4.125 1.59375 -3.5625 C 1.59375 -3.039062 1.707031 -2.578125 1.9375 -2.171875 C 2.175781 -1.765625 2.503906 -1.445312 2.921875 -1.21875 C 3.347656 -1 3.835938 -0.890625 4.390625 -0.890625 C 4.640625 -0.890625 4.882812 -0.914062 5.125 -0.96875 C 5.363281 -1.019531 5.566406 -1.09375 5.734375 -1.1875 L 5.734375 -2.609375 L 4.296875 -2.609375 L 4.296875 -3.546875 L 6.703125 -3.546875 Z M 6.703125 -0.625 "/></g></g></g><g fill="#000000" fill-opacity="1"><g transform="translate(103.310576, 207.263996)"><g><path d="M 4.828125 -1.90625 L 2.046875 -1.90625 L 1.28125 0 L 0.3125 0 L 3.484375 -7.53125 L 3.546875 -7.53125 L 6.703125 0 L 5.578125 0 Z M 4.5 -2.734375 L 3.46875 -5.375 L 2.40625 -2.734375 Z M 4.5 -2.734375 "/></g></g></g><g fill="#000000" fill-opacity="1"><g transform="translate(110.317816, 207.263996)"><g><path d="M 6.703125 -0.625 C 6.484375 -0.445312 6.140625 -0.285156 5.671875 -0.140625 C 5.203125 0.00390625 4.769531 0.078125 4.375 0.078125 C 3.613281 0.078125 2.945312 -0.0703125 2.375 -0.375 C 1.800781 -0.6875 1.359375 -1.113281 1.046875 -1.65625 C 0.742188 -2.195312 0.59375 -2.804688 0.59375 -3.484375 C 0.59375 -4.265625 0.757812 -4.941406 1.09375 -5.515625 C 1.425781 -6.097656 1.875 -6.539062 2.4375 -6.84375 C 3.007812 -7.15625 3.628906 -7.3125 4.296875 -7.3125 C 4.703125 -7.3125 5.082031 -7.257812 5.4375 -7.15625 C 5.800781 -7.0625 6.128906 -6.9375 6.421875 -6.78125 L 6.09375 -5.890625 C 5.882812 -6.003906 5.617188 -6.109375 5.296875 -6.203125 C 4.972656 -6.296875 4.679688 -6.34375 4.421875 -6.34375 C 3.859375 -6.34375 3.363281 -6.226562 2.9375 -6 C 2.507812 -5.769531 2.175781 -5.445312 1.9375 -5.03125 C 1.707031 -4.613281 1.59375 -4.125 1.59375 -3.5625 C 1.59375 -3.039062 1.707031 -2.578125 1.9375 -2.171875 C 2.175781 -1.765625 2.503906 -1.445312 2.921875 -1.21875 C 3.347656 -1 3.835938 -0.890625 4.390625 -0.890625 C 4.640625 -0.890625 4.882812 -0.914062 5.125 -0.96875 C 5.363281 -1.019531 5.566406 -1.09375 5.734375 -1.1875 L 5.734375 -2.609375 L 4.296875 -2.609375 L 4.296875 -3.546875 L 6.703125 -3.546875 Z M 6.703125 -0.625 "/></g></g></g><g fill="#000000" fill-opacity="1"><g transform="translate(117.834855, 207.263996)"><g><path d="M 5.734375 -7.234375 L 5.734375 -6.296875 L 2.015625 -6.296875 L 2.015625 -4.09375 L 5.34375 -4.09375 L 5.34375 -3.171875 L 2.015625 -3.171875 L 2.015625 -0.9375 L 5.875 -0.9375 L 5.875 0 L 1.046875 0 L 1.046875 -7.234375 Z M 5.734375 -7.234375 "/></g></g></g><g fill="#000000" fill-opacity="1"><g transform="translate(124.362279, 207.263996)"><g/></g></g><g fill="#000000" fill-opacity="1"><g transform="translate(127.521031, 207.263996)"><g><path d="M 2.015625 -7.234375 L 2.015625 0 L 1.046875 0 L 1.046875 -7.234375 Z M 2.015625 -7.234375 "/></g></g></g><g fill="#000000" fill-opacity="1"><g transform="translate(130.569828, 207.263996)"><g><path d="M 7.34375 -7.234375 L 7.34375 0.234375 L 7.3125 0.234375 L 2 -5.15625 L 2.015625 0 L 1.046875 0 L 1.046875 -7.453125 L 1.09375 -7.453125 L 6.390625 -2 L 6.375 -7.234375 Z M 7.34375 -7.234375 "/></g></g></g><g fill="#000000" fill-opacity="1"><g transform="translate(138.946526, 207.263996)"><g><path d="M 5.3125 -7.234375 L 5.3125 -6.296875 L 3.375 -6.296875 L 3.375 0 L 2.40625 0 L 2.40625 -6.296875 L 0.515625 -6.296875 L 0.515625 -7.234375 Z M 5.3125 -7.234375 "/></g></g></g><g fill="#000000" fill-opacity="1"><g transform="translate(144.764232, 207.263996)"><g><path d="M 5.734375 -7.234375 L 5.734375 -6.296875 L 2.015625 -6.296875 L 2.015625 -4.09375 L 5.34375 -4.09375 L 5.34375 -3.171875 L 2.015625 -3.171875 L 2.015625 -0.9375 L 5.875 -0.9375 L 5.875 0 L 1.046875 0 L 1.046875 -7.234375 Z M 5.734375 -7.234375 "/></g></g></g><g fill="#000000" fill-opacity="1"><g transform="translate(151.291656, 207.263996)"><g><path d="M 2.015625 -7.234375 L 2.015625 -0.9375 L 5.6875 -0.9375 L 5.6875 0 L 1.046875 0 L 1.046875 -7.234375 Z M 2.015625 -7.234375 "/></g></g></g><g fill="#000000" fill-opacity="1"><g transform="translate(157.509207, 207.263996)"><g><path d="M 2.015625 -7.234375 L 2.015625 -0.9375 L 5.6875 -0.9375 L 5.6875 0 L 1.046875 0 L 1.046875 -7.234375 Z M 2.015625 -7.234375 "/></g></g></g><g fill="#000000" fill-opacity="1"><g transform="translate(163.726759, 207.263996)"><g><path d="M 2.015625 -7.234375 L 2.015625 0 L 1.046875 0 L 1.046875 -7.234375 Z M 2.015625 -7.234375 "/></g></g></g><g fill="#000000" fill-opacity="1"><g transform="translate(166.775557, 207.263996)"><g><path d="M 6.703125 -0.625 C 6.484375 -0.445312 6.140625 -0.285156 5.671875 -0.140625 C 5.203125 0.00390625 4.769531 0.078125 4.375 0.078125 C 3.613281 0.078125 2.945312 -0.0703125 2.375 -0.375 C 1.800781 -0.6875 1.359375 -1.113281 1.046875 -1.65625 C 0.742188 -2.195312 0.59375 -2.804688 0.59375 -3.484375 C 0.59375 -4.265625 0.757812 -4.941406 1.09375 -5.515625 C 1.425781 -6.097656 1.875 -6.539062 2.4375 -6.84375 C 3.007812 -7.15625 3.628906 -7.3125 4.296875 -7.3125 C 4.703125 -7.3125 5.082031 -7.257812 5.4375 -7.15625 C 5.800781 -7.0625 6.128906 -6.9375 6.421875 -6.78125 L 6.09375 -5.890625 C 5.882812 -6.003906 5.617188 -6.109375 5.296875 -6.203125 C 4.972656 -6.296875 4.679688 -6.34375 4.421875 -6.34375 C 3.859375 -6.34375 3.363281 -6.226562 2.9375 -6 C 2.507812 -5.769531 2.175781 -5.445312 1.9375 -5.03125 C 1.707031 -4.613281 1.59375 -4.125 1.59375 -3.5625 C 1.59375 -3.039062 1.707031 -2.578125 1.9375 -2.171875 C 2.175781 -1.765625 2.503906 -1.445312 2.921875 -1.21875 C 3.347656 -1 3.835938 -0.890625 4.390625 -0.890625 C 4.640625 -0.890625 4.882812 -0.914062 5.125 -0.96875 C 5.363281 -1.019531 5.566406 -1.09375 5.734375 -1.1875 L 5.734375 -2.609375 L 4.296875 -2.609375 L 4.296875 -3.546875 L 6.703125 -3.546875 Z M 6.703125 -0.625 "/></g></g></g><g fill="#000000" fill-opacity="1"><g transform="translate(174.292596, 207.263996)"><g><path d="M 5.734375 -7.234375 L 5.734375 -6.296875 L 2.015625 -6.296875 L 2.015625 -4.09375 L 5.34375 -4.09375 L 5.34375 -3.171875 L 2.015625 -3.171875 L 2.015625 -0.9375 L 5.875 -0.9375 L 5.875 0 L 1.046875 0 L 1.046875 -7.234375 Z M 5.734375 -7.234375 "/></g></g></g><g fill="#000000" fill-opacity="1"><g transform="translate(180.82002, 207.263996)"><g><path d="M 7.34375 -7.234375 L 7.34375 0.234375 L 7.3125 0.234375 L 2 -5.15625 L 2.015625 0 L 1.046875 0 L 1.046875 -7.453125 L 1.09375 -7.453125 L 6.390625 -2 L 6.375 -7.234375 Z M 7.34375 -7.234375 "/></g></g></g><g fill="#000000" fill-opacity="1"><g transform="translate(189.196717, 207.263996)"><g><path d="M 5.3125 -7.234375 L 5.3125 -6.296875 L 3.375 -6.296875 L 3.375 0 L 2.40625 0 L 2.40625 -6.296875 L 0.515625 -6.296875 L 0.515625 -7.234375 Z M 5.3125 -7.234375 "/></g></g></g><g fill="#000000" fill-opacity="1"><g transform="translate(195.014423, 207.263996)"><g/></g></g><g fill="#000000" fill-opacity="1"><g transform="translate(198.178268, 207.263996)"><g><path d="M 2.984375 -7.234375 C 3.765625 -7.234375 4.375 -7.035156 4.8125 -6.640625 C 5.257812 -6.242188 5.484375 -5.691406 5.484375 -4.984375 C 5.484375 -4.578125 5.398438 -4.195312 5.234375 -3.84375 C 5.078125 -3.488281 4.816406 -3.203125 4.453125 -2.984375 C 4.085938 -2.765625 3.628906 -2.65625 3.078125 -2.65625 L 2.015625 -2.65625 L 2.015625 0 L 1.046875 0 L 1.046875 -7.234375 Z M 3.078125 -3.59375 C 3.421875 -3.59375 3.703125 -3.664062 3.921875 -3.8125 C 4.140625 -3.96875 4.296875 -4.148438 4.390625 -4.359375 C 4.484375 -4.566406 4.53125 -4.769531 4.53125 -4.96875 C 4.53125 -5.3125 4.414062 -5.617188 4.1875 -5.890625 C 3.957031 -6.160156 3.601562 -6.296875 3.125 -6.296875 L 2.015625 -6.296875 L 2.015625 -3.59375 Z M 3.078125 -3.59375 "/></g></g></g><g fill="#000000" fill-opacity="1"><g transform="translate(204.125923, 207.263996)"><g><path d="M 5.015625 0 L 3.3125 -2.671875 C 3.257812 -2.660156 3.179688 -2.65625 3.078125 -2.65625 L 2.015625 -2.65625 L 2.015625 0 L 1.046875 0 L 1.046875 -7.234375 L 2.96875 -7.234375 C 3.457031 -7.234375 3.894531 -7.144531 4.28125 -6.96875 C 4.675781 -6.789062 4.984375 -6.535156 5.203125 -6.203125 C 5.421875 -5.867188 5.53125 -5.460938 5.53125 -4.984375 C 5.53125 -4.535156 5.429688 -4.125 5.234375 -3.75 C 5.035156 -3.382812 4.734375 -3.101562 4.328125 -2.90625 L 6.15625 0 Z M 3.0625 -3.59375 C 3.582031 -3.59375 3.957031 -3.726562 4.1875 -4 C 4.414062 -4.28125 4.53125 -4.597656 4.53125 -4.953125 C 4.53125 -5.160156 4.476562 -5.367188 4.375 -5.578125 C 4.28125 -5.785156 4.128906 -5.957031 3.921875 -6.09375 C 3.710938 -6.226562 3.445312 -6.296875 3.125 -6.296875 L 2.015625 -6.296875 L 2.015625 -3.59375 Z M 3.0625 -3.59375 "/></g></g></g><g fill="#000000" fill-opacity="1"><g transform="translate(210.723315, 207.263996)"><g><path d="M 0.59375 -3.609375 C 0.59375 -4.265625 0.757812 -4.875 1.09375 -5.4375 C 1.425781 -6.007812 1.875 -6.460938 2.4375 -6.796875 C 3 -7.140625 3.613281 -7.3125 4.28125 -7.3125 C 4.9375 -7.3125 5.546875 -7.140625 6.109375 -6.796875 C 6.679688 -6.460938 7.132812 -6.007812 7.46875 -5.4375 C 7.8125 -4.875 7.984375 -4.265625 7.984375 -3.609375 C 7.984375 -2.941406 7.816406 -2.320312 7.484375 -1.75 C 7.148438 -1.1875 6.695312 -0.738281 6.125 -0.40625 C 5.550781 -0.0820312 4.9375 0.078125 4.28125 0.078125 C 3.613281 0.078125 2.992188 -0.0820312 2.421875 -0.40625 C 1.859375 -0.738281 1.410156 -1.1875 1.078125 -1.75 C 0.753906 -2.3125 0.59375 -2.929688 0.59375 -3.609375 Z M 1.59375 -3.59375 C 1.59375 -3.101562 1.710938 -2.644531 1.953125 -2.21875 C 2.191406 -1.800781 2.519531 -1.46875 2.9375 -1.21875 C 3.351562 -0.976562 3.804688 -0.859375 4.296875 -0.859375 C 4.796875 -0.859375 5.25 -0.976562 5.65625 -1.21875 C 6.0625 -1.46875 6.382812 -1.800781 6.625 -2.21875 C 6.863281 -2.644531 6.984375 -3.109375 6.984375 -3.609375 C 6.984375 -4.109375 6.863281 -4.570312 6.625 -5 C 6.382812 -5.425781 6.054688 -5.757812 5.640625 -6 C 5.222656 -6.25 4.769531 -6.375 4.28125 -6.375 C 3.789062 -6.375 3.335938 -6.25 2.921875 -6 C 2.503906 -5.75 2.175781 -5.410156 1.9375 -4.984375 C 1.707031 -4.554688 1.59375 -4.09375 1.59375 -3.59375 Z M 1.59375 -3.59375 "/></g></g></g><g fill="#000000" fill-opacity="1"><g transform="translate(219.289938, 207.263996)"><g><path d="M 6.34375 -0.546875 C 6.113281 -0.390625 5.820312 -0.242188 5.46875 -0.109375 C 5.113281 0.015625 4.722656 0.078125 4.296875 0.078125 C 3.554688 0.078125 2.90625 -0.0820312 2.34375 -0.40625 C 1.78125 -0.738281 1.347656 -1.179688 1.046875 -1.734375 C 0.742188 -2.285156 0.59375 -2.894531 0.59375 -3.5625 C 0.59375 -4.269531 0.742188 -4.910156 1.046875 -5.484375 C 1.359375 -6.054688 1.785156 -6.503906 2.328125 -6.828125 C 2.867188 -7.148438 3.484375 -7.3125 4.171875 -7.3125 C 4.578125 -7.3125 4.957031 -7.253906 5.3125 -7.140625 C 5.664062 -7.035156 5.984375 -6.898438 6.265625 -6.734375 L 5.875 -5.8125 C 5.320312 -6.1875 4.765625 -6.375 4.203125 -6.375 C 3.734375 -6.375 3.300781 -6.25 2.90625 -6 C 2.507812 -5.757812 2.191406 -5.425781 1.953125 -5 C 1.710938 -4.582031 1.59375 -4.117188 1.59375 -3.609375 C 1.59375 -3.085938 1.703125 -2.613281 1.921875 -2.1875 C 2.140625 -1.769531 2.445312 -1.441406 2.84375 -1.203125 C 3.25 -0.972656 3.71875 -0.859375 4.25 -0.859375 C 4.894531 -0.859375 5.457031 -1.039062 5.9375 -1.40625 Z M 6.34375 -0.546875 "/></g></g></g><g fill="#000000" fill-opacity="1"><g transform="translate(226.227198, 207.263996)"><g><path d="M 5.734375 -7.234375 L 5.734375 -6.296875 L 2.015625 -6.296875 L 2.015625 -4.09375 L 5.34375 -4.09375 L 5.34375 -3.171875 L 2.015625 -3.171875 L 2.015625 -0.9375 L 5.875 -0.9375 L 5.875 0 L 1.046875 0 L 1.046875 -7.234375 Z M 5.734375 -7.234375 "/></g></g></g><g fill="#000000" fill-opacity="1"><g transform="translate(232.754621, 207.263996)"><g><path d="M 4.78125 -5.9375 C 4.519531 -6.082031 4.242188 -6.195312 3.953125 -6.28125 C 3.660156 -6.363281 3.382812 -6.40625 3.125 -6.40625 C 2.726562 -6.40625 2.414062 -6.316406 2.1875 -6.140625 C 1.957031 -5.960938 1.84375 -5.722656 1.84375 -5.421875 C 1.84375 -5.117188 1.976562 -4.875 2.25 -4.6875 C 2.519531 -4.5 2.90625 -4.3125 3.40625 -4.125 C 3.769531 -3.988281 4.082031 -3.84375 4.34375 -3.6875 C 4.601562 -3.53125 4.816406 -3.3125 4.984375 -3.03125 C 5.148438 -2.757812 5.234375 -2.410156 5.234375 -1.984375 C 5.234375 -1.597656 5.132812 -1.242188 4.9375 -0.921875 C 4.75 -0.609375 4.476562 -0.363281 4.125 -0.1875 C 3.769531 -0.0078125 3.351562 0.078125 2.875 0.078125 C 2.425781 0.078125 1.992188 0.0078125 1.578125 -0.125 C 1.160156 -0.269531 0.796875 -0.457031 0.484375 -0.6875 L 0.921875 -1.453125 C 1.171875 -1.265625 1.46875 -1.101562 1.8125 -0.96875 C 2.15625 -0.84375 2.476562 -0.78125 2.78125 -0.78125 C 3.164062 -0.78125 3.503906 -0.878906 3.796875 -1.078125 C 4.085938 -1.273438 4.234375 -1.570312 4.234375 -1.96875 C 4.234375 -2.300781 4.109375 -2.566406 3.859375 -2.765625 C 3.617188 -2.960938 3.28125 -3.144531 2.84375 -3.3125 C 2.4375 -3.46875 2.097656 -3.617188 1.828125 -3.765625 C 1.554688 -3.910156 1.320312 -4.113281 1.125 -4.375 C 0.9375 -4.632812 0.84375 -4.957031 0.84375 -5.34375 C 0.84375 -5.90625 1.039062 -6.359375 1.4375 -6.703125 C 1.832031 -7.054688 2.347656 -7.242188 2.984375 -7.265625 C 3.765625 -7.265625 4.488281 -7.070312 5.15625 -6.6875 Z M 4.78125 -5.9375 "/></g></g></g><g fill="#000000" fill-opacity="1"><g transform="translate(238.572328, 207.263996)"><g><path d="M 4.78125 -5.9375 C 4.519531 -6.082031 4.242188 -6.195312 3.953125 -6.28125 C 3.660156 -6.363281 3.382812 -6.40625 3.125 -6.40625 C 2.726562 -6.40625 2.414062 -6.316406 2.1875 -6.140625 C 1.957031 -5.960938 1.84375 -5.722656 1.84375 -5.421875 C 1.84375 -5.117188 1.976562 -4.875 2.25 -4.6875 C 2.519531 -4.5 2.90625 -4.3125 3.40625 -4.125 C 3.769531 -3.988281 4.082031 -3.84375 4.34375 -3.6875 C 4.601562 -3.53125 4.816406 -3.3125 4.984375 -3.03125 C 5.148438 -2.757812 5.234375 -2.410156 5.234375 -1.984375 C 5.234375 -1.597656 5.132812 -1.242188 4.9375 -0.921875 C 4.75 -0.609375 4.476562 -0.363281 4.125 -0.1875 C 3.769531 -0.0078125 3.351562 0.078125 2.875 0.078125 C 2.425781 0.078125 1.992188 0.0078125 1.578125 -0.125 C 1.160156 -0.269531 0.796875 -0.457031 0.484375 -0.6875 L 0.921875 -1.453125 C 1.171875 -1.265625 1.46875 -1.101562 1.8125 -0.96875 C 2.15625 -0.84375 2.476562 -0.78125 2.78125 -0.78125 C 3.164062 -0.78125 3.503906 -0.878906 3.796875 -1.078125 C 4.085938 -1.273438 4.234375 -1.570312 4.234375 -1.96875 C 4.234375 -2.300781 4.109375 -2.566406 3.859375 -2.765625 C 3.617188 -2.960938 3.28125 -3.144531 2.84375 -3.3125 C 2.4375 -3.46875 2.097656 -3.617188 1.828125 -3.765625 C 1.554688 -3.910156 1.320312 -4.113281 1.125 -4.375 C 0.9375 -4.632812 0.84375 -4.957031 0.84375 -5.34375 C 0.84375 -5.90625 1.039062 -6.359375 1.4375 -6.703125 C 1.832031 -7.054688 2.347656 -7.242188 2.984375 -7.265625 C 3.765625 -7.265625 4.488281 -7.070312 5.15625 -6.6875 Z M 4.78125 -5.9375 "/></g></g></g><g fill="#000000" fill-opacity="1"><g transform="translate(244.390034, 207.263996)"><g><path d="M 2.015625 -7.234375 L 2.015625 0 L 1.046875 0 L 1.046875 -7.234375 Z M 2.015625 -7.234375 "/></g></g></g><g fill="#000000" fill-opacity="1"><g transform="translate(247.438832, 207.263996)"><g><path d="M 7.34375 -7.234375 L 7.34375 0.234375 L 7.3125 0.234375 L 2 -5.15625 L 2.015625 0 L 1.046875 0 L 1.046875 -7.453125 L 1.09375 -7.453125 L 6.390625 -2 L 6.375 -7.234375 Z M 7.34375 -7.234375 "/></g></g></g><g fill="#000000" fill-opacity="1"><g transform="translate(255.815529, 207.263996)"><g><path d="M 6.703125 -0.625 C 6.484375 -0.445312 6.140625 -0.285156 5.671875 -0.140625 C 5.203125 0.00390625 4.769531 0.078125 4.375 0.078125 C 3.613281 0.078125 2.945312 -0.0703125 2.375 -0.375 C 1.800781 -0.6875 1.359375 -1.113281 1.046875 -1.65625 C 0.742188 -2.195312 0.59375 -2.804688 0.59375 -3.484375 C 0.59375 -4.265625 0.757812 -4.941406 1.09375 -5.515625 C 1.425781 -6.097656 1.875 -6.539062 2.4375 -6.84375 C 3.007812 -7.15625 3.628906 -7.3125 4.296875 -7.3125 C 4.703125 -7.3125 5.082031 -7.257812 5.4375 -7.15625 C 5.800781 -7.0625 6.128906 -6.9375 6.421875 -6.78125 L 6.09375 -5.890625 C 5.882812 -6.003906 5.617188 -6.109375 5.296875 -6.203125 C 4.972656 -6.296875 4.679688 -6.34375 4.421875 -6.34375 C 3.859375 -6.34375 3.363281 -6.226562 2.9375 -6 C 2.507812 -5.769531 2.175781 -5.445312 1.9375 -5.03125 C 1.707031 -4.613281 1.59375 -4.125 1.59375 -3.5625 C 1.59375 -3.039062 1.707031 -2.578125 1.9375 -2.171875 C 2.175781 -1.765625 2.503906 -1.445312 2.921875 -1.21875 C 3.347656 -1 3.835938 -0.890625 4.390625 -0.890625 C 4.640625 -0.890625 4.882812 -0.914062 5.125 -0.96875 C 5.363281 -1.019531 5.566406 -1.09375 5.734375 -1.1875 L 5.734375 -2.609375 L 4.296875 -2.609375 L 4.296875 -3.546875 L 6.703125 -3.546875 Z M 6.703125 -0.625 "/></g></g></g><g fill="#000000" fill-opacity="1"><g transform="translate(263.332568, 207.263996)"><g/></g></g><g fill="#000000" fill-opacity="1"><g transform="translate(266.491321, 207.263996)"><g><path d="M 4.828125 -1.90625 L 2.046875 -1.90625 L 1.28125 0 L 0.3125 0 L 3.484375 -7.53125 L 3.546875 -7.53125 L 6.703125 0 L 5.578125 0 Z M 4.5 -2.734375 L 3.46875 -5.375 L 2.40625 -2.734375 Z M 4.5 -2.734375 "/></g></g></g><g fill="#000000" fill-opacity="1"><g transform="translate(273.498561, 207.263996)"><g><path d="M 4.78125 -5.9375 C 4.519531 -6.082031 4.242188 -6.195312 3.953125 -6.28125 C 3.660156 -6.363281 3.382812 -6.40625 3.125 -6.40625 C 2.726562 -6.40625 2.414062 -6.316406 2.1875 -6.140625 C 1.957031 -5.960938 1.84375 -5.722656 1.84375 -5.421875 C 1.84375 -5.117188 1.976562 -4.875 2.25 -4.6875 C 2.519531 -4.5 2.90625 -4.3125 3.40625 -4.125 C 3.769531 -3.988281 4.082031 -3.84375 4.34375 -3.6875 C 4.601562 -3.53125 4.816406 -3.3125 4.984375 -3.03125 C 5.148438 -2.757812 5.234375 -2.410156 5.234375 -1.984375 C 5.234375 -1.597656 5.132812 -1.242188 4.9375 -0.921875 C 4.75 -0.609375 4.476562 -0.363281 4.125 -0.1875 C 3.769531 -0.0078125 3.351562 0.078125 2.875 0.078125 C 2.425781 0.078125 1.992188 0.0078125 1.578125 -0.125 C 1.160156 -0.269531 0.796875 -0.457031 0.484375 -0.6875 L 0.921875 -1.453125 C 1.171875 -1.265625 1.46875 -1.101562 1.8125 -0.96875 C 2.15625 -0.84375 2.476562 -0.78125 2.78125 -0.78125 C 3.164062 -0.78125 3.503906 -0.878906 3.796875 -1.078125 C 4.085938 -1.273438 4.234375 -1.570312 4.234375 -1.96875 C 4.234375 -2.300781 4.109375 -2.566406 3.859375 -2.765625 C 3.617188 -2.960938 3.28125 -3.144531 2.84375 -3.3125 C 2.4375 -3.46875 2.097656 -3.617188 1.828125 -3.765625 C 1.554688 -3.910156 1.320312 -4.113281 1.125 -4.375 C 0.9375 -4.632812 0.84375 -4.957031 0.84375 -5.34375 C 0.84375 -5.90625 1.039062 -6.359375 1.4375 -6.703125 C 1.832031 -7.054688 2.347656 -7.242188 2.984375 -7.265625 C 3.765625 -7.265625 4.488281 -7.070312 5.15625 -6.6875 Z M 4.78125 -5.9375 "/></g></g></g><g fill="#000000" fill-opacity="1"><g transform="translate(279.316267, 207.263996)"><g><path d="M 4.78125 -5.9375 C 4.519531 -6.082031 4.242188 -6.195312 3.953125 -6.28125 C 3.660156 -6.363281 3.382812 -6.40625 3.125 -6.40625 C 2.726562 -6.40625 2.414062 -6.316406 2.1875 -6.140625 C 1.957031 -5.960938 1.84375 -5.722656 1.84375 -5.421875 C 1.84375 -5.117188 1.976562 -4.875 2.25 -4.6875 C 2.519531 -4.5 2.90625 -4.3125 3.40625 -4.125 C 3.769531 -3.988281 4.082031 -3.84375 4.34375 -3.6875 C 4.601562 -3.53125 4.816406 -3.3125 4.984375 -3.03125 C 5.148438 -2.757812 5.234375 -2.410156 5.234375 -1.984375 C 5.234375 -1.597656 5.132812 -1.242188 4.9375 -0.921875 C 4.75 -0.609375 4.476562 -0.363281 4.125 -0.1875 C 3.769531 -0.0078125 3.351562 0.078125 2.875 0.078125 C 2.425781 0.078125 1.992188 0.0078125 1.578125 -0.125 C 1.160156 -0.269531 0.796875 -0.457031 0.484375 -0.6875 L 0.921875 -1.453125 C 1.171875 -1.265625 1.46875 -1.101562 1.8125 -0.96875 C 2.15625 -0.84375 2.476562 -0.78125 2.78125 -0.78125 C 3.164062 -0.78125 3.503906 -0.878906 3.796875 -1.078125 C 4.085938 -1.273438 4.234375 -1.570312 4.234375 -1.96875 C 4.234375 -2.300781 4.109375 -2.566406 3.859375 -2.765625 C 3.617188 -2.960938 3.28125 -3.144531 2.84375 -3.3125 C 2.4375 -3.46875 2.097656 -3.617188 1.828125 -3.765625 C 1.554688 -3.910156 1.320312 -4.113281 1.125 -4.375 C 0.9375 -4.632812 0.84375 -4.957031 0.84375 -5.34375 C 0.84375 -5.90625 1.039062 -6.359375 1.4375 -6.703125 C 1.832031 -7.054688 2.347656 -7.242188 2.984375 -7.265625 C 3.765625 -7.265625 4.488281 -7.070312 5.15625 -6.6875 Z M 4.78125 -5.9375 "/></g></g></g><g fill="#000000" fill-opacity="1"><g transform="translate(285.133974, 207.263996)"><g><path d="M 2.015625 -7.234375 L 2.015625 0 L 1.046875 0 L 1.046875 -7.234375 Z M 2.015625 -7.234375 "/></g></g></g><g fill="#000000" fill-opacity="1"><g transform="translate(288.182771, 207.263996)"><g><path d="M 4.78125 -5.9375 C 4.519531 -6.082031 4.242188 -6.195312 3.953125 -6.28125 C 3.660156 -6.363281 3.382812 -6.40625 3.125 -6.40625 C 2.726562 -6.40625 2.414062 -6.316406 2.1875 -6.140625 C 1.957031 -5.960938 1.84375 -5.722656 1.84375 -5.421875 C 1.84375 -5.117188 1.976562 -4.875 2.25 -4.6875 C 2.519531 -4.5 2.90625 -4.3125 3.40625 -4.125 C 3.769531 -3.988281 4.082031 -3.84375 4.34375 -3.6875 C 4.601562 -3.53125 4.816406 -3.3125 4.984375 -3.03125 C 5.148438 -2.757812 5.234375 -2.410156 5.234375 -1.984375 C 5.234375 -1.597656 5.132812 -1.242188 4.9375 -0.921875 C 4.75 -0.609375 4.476562 -0.363281 4.125 -0.1875 C 3.769531 -0.0078125 3.351562 0.078125 2.875 0.078125 C 2.425781 0.078125 1.992188 0.0078125 1.578125 -0.125 C 1.160156 -0.269531 0.796875 -0.457031 0.484375 -0.6875 L 0.921875 -1.453125 C 1.171875 -1.265625 1.46875 -1.101562 1.8125 -0.96875 C 2.15625 -0.84375 2.476562 -0.78125 2.78125 -0.78125 C 3.164062 -0.78125 3.503906 -0.878906 3.796875 -1.078125 C 4.085938 -1.273438 4.234375 -1.570312 4.234375 -1.96875 C 4.234375 -2.300781 4.109375 -2.566406 3.859375 -2.765625 C 3.617188 -2.960938 3.28125 -3.144531 2.84375 -3.3125 C 2.4375 -3.46875 2.097656 -3.617188 1.828125 -3.765625 C 1.554688 -3.910156 1.320312 -4.113281 1.125 -4.375 C 0.9375 -4.632812 0.84375 -4.957031 0.84375 -5.34375 C 0.84375 -5.90625 1.039062 -6.359375 1.4375 -6.703125 C 1.832031 -7.054688 2.347656 -7.242188 2.984375 -7.265625 C 3.765625 -7.265625 4.488281 -7.070312 5.15625 -6.6875 Z M 4.78125 -5.9375 "/></g></g></g><g fill="#000000" fill-opacity="1"><g transform="translate(294.000478, 207.263996)"><g><path d="M 5.3125 -7.234375 L 5.3125 -6.296875 L 3.375 -6.296875 L 3.375 0 L 2.40625 0 L 2.40625 -6.296875 L 0.515625 -6.296875 L 0.515625 -7.234375 Z M 5.3125 -7.234375 "/></g></g></g><g fill="#000000" fill-opacity="1"><g transform="translate(299.818185, 207.263996)"><g><path d="M 4.828125 -1.90625 L 2.046875 -1.90625 L 1.28125 0 L 0.3125 0 L 3.484375 -7.53125 L 3.546875 -7.53125 L 6.703125 0 L 5.578125 0 Z M 4.5 -2.734375 L 3.46875 -5.375 L 2.40625 -2.734375 Z M 4.5 -2.734375 "/></g></g></g><g fill="#000000" fill-opacity="1"><g transform="translate(306.825424, 207.263996)"><g><path d="M 7.34375 -7.234375 L 7.34375 0.234375 L 7.3125 0.234375 L 2 -5.15625 L 2.015625 0 L 1.046875 0 L 1.046875 -7.453125 L 1.09375 -7.453125 L 6.390625 -2 L 6.375 -7.234375 Z M 7.34375 -7.234375 "/></g></g></g><g fill="#000000" fill-opacity="1"><g transform="translate(315.202121, 207.263996)"><g><path d="M 5.3125 -7.234375 L 5.3125 -6.296875 L 3.375 -6.296875 L 3.375 0 L 2.40625 0 L 2.40625 -6.296875 L 0.515625 -6.296875 L 0.515625 -7.234375 Z M 5.3125 -7.234375 "/></g></g></g><g fill="#000000" fill-opacity="1"><g transform="translate(185.213121, 188.26402)"><g><path d="M 7.261719 3.601562 C -0.421875 8.578125 3.300781 -9.71875 4.859375 -18.839844 C 5.28125 -21.300781 1.679688 -20.640625 0.421875 -17.398438 C -0.480469 -14.339844 -1.921875 -3.539062 -0.71875 0.839844 C 0.480469 5.878906 4.558594 6.78125 8.339844 3.898438 C 13.738281 -0.121094 20.039062 -9.78125 23.339844 -14.101562 C 23.339844 -14.398438 22.558594 -14.398438 22.320312 -14.160156 C 19.738281 -10.859375 12.421875 0.179688 7.261719 3.601562 Z M 3.71875 -24.179688 C 5.460938 -24.179688 6.300781 -28.558594 4.738281 -29.039062 C 2.28125 -29.28125 1.621094 -24.179688 3.71875 -24.179688 Z M 3.71875 -24.179688 "/></g></g></g><g fill="#000000" fill-opacity="1"><g transform="translate(207.473102, 188.26402)"><g><path d="M 26.761719 -14.039062 C 27.058594 -14.460938 26.339844 -14.699219 25.621094 -14.101562 C 16.679688 -1.019531 9.359375 7.679688 5.519531 6.539062 C 0.839844 5.160156 9.121094 -8.460938 6.898438 -10.078125 C 6.78125 -10.199219 5.878906 -10.738281 1.261719 -14.28125 C 6.238281 -21.480469 8.101562 -25.738281 4.738281 -27.238281 C -1.441406 -29.640625 -6.179688 -20.21875 -1.679688 -15.359375 C -0.960938 -14.640625 3.121094 -11.761719 4.378906 -10.800781 C 1.859375 -6.480469 -0.898438 0.78125 1.980469 5.519531 C 2.941406 7.078125 4.800781 7.800781 5.699219 7.738281 C 11.039062 7.378906 18.539062 -2.160156 26.761719 -14.039062 Z M 0.480469 -14.878906 C -2.519531 -17.160156 1.679688 -27.480469 4.441406 -26.28125 C 7.261719 -25.078125 3.78125 -19.738281 0.480469 -14.878906 Z M 0.480469 -14.878906 "/></g></g></g><g fill="#000000" fill-opacity="1"><g transform="translate(233.09308, 188.26402)"><g><path d="M 16.261719 3.601562 C 7.679688 9.480469 14.101562 -17.160156 18.058594 -23.761719 C 18.421875 -25.199219 14.941406 -25.980469 13.738281 -23.339844 L 13.199219 -22.261719 C 9.839844 -23.699219 1.980469 -22.621094 0 -14.339844 C -1.378906 -8.460938 0.960938 -4.441406 3.960938 -5.101562 C 5.640625 -5.460938 7.558594 -9.121094 11.640625 -16.980469 C 7.558594 -6.480469 7.980469 10.800781 17.339844 3.898438 C 22.738281 -0.121094 29.039062 -9.78125 32.339844 -14.101562 C 32.339844 -14.398438 31.558594 -14.398438 31.320312 -14.160156 C 28.738281 -10.859375 21.480469 0.238281 16.261719 3.601562 Z M 12.839844 -21.421875 C 9.839844 -15.839844 5.699219 -7.261719 4.378906 -6.300781 C 1.738281 -9.359375 5.28125 -24.421875 12.839844 -21.421875 Z M 12.839844 -21.421875 "/></g></g></g></svg>