<svg xmlns="http://www.w3.org/2000/svg" xmlns:xlink="http://www.w3.org/1999/xlink" width="278" zoomAndPan="magnify" viewBox="0 0 208.5 84.749999" height="113" preserveAspectRatio="xMidYMid meet" version="1.0"><defs><g/><clipPath id="6de4c56ab2"><path d="M 99 39 L 177.464844 39 L 177.464844 47 L 99 47 Z M 99 39 " clip-rule="nonzero"/></clipPath></defs><g clip-path="url(#6de4c56ab2)"><path fill="#000000" d="M 99.460938 43.6875 C 99.246094 44.03125 98.953125 43.761719 99.140625 43.457031 C 106.023438 32.359375 110.339844 47.417969 124.179688 46.152344 C 145.484375 44.207031 163.296875 37.996094 176.554688 43.34375 C 177.476562 43.714844 176.828125 44.5 176.046875 44.132812 C 165.015625 38.957031 144.519531 44.375 124.085938 46.574219 C 110.242188 48.058594 106.328125 32.769531 99.460938 43.6875 Z M 99.460938 43.6875 " fill-opacity="1" fill-rule="nonzero"/></g><g fill="#000000" fill-opacity="1"><g transform="translate(28.351536, 50.264558)"><g><path d="M 41.875 -4.804688 C 36.726562 -2.746094 44.003906 -22.859375 42.21875 -27.835938 C 41.738281 -29.175781 40.707031 -29.792969 39.4375 -29.003906 C 35.421875 -26.496094 29.585938 -12.390625 25.707031 -1.304688 C 28.417969 -14.519531 31.921875 -32.230469 22.894531 -32.847656 C 16.40625 -33.292969 10.984375 -25.433594 11.019531 -17.160156 C 2.539062 -20.800781 -2.402344 -13.832031 1.132812 -8.066406 L 2.023438 -8.066406 C -1.75 -12.835938 2.023438 -20.25 10.949219 -16.679688 C 11.085938 -8.855469 14.074219 -5.558594 16.679688 -5.902344 C 19.152344 -6.246094 21.003906 -12.21875 11.703125 -16.988281 C 11.464844 -24.335938 16.578125 -33.019531 22.894531 -32.296875 C 34.460938 -30.992188 19.117188 6.179688 21.65625 12.011719 C 22.207031 13.28125 23.890625 13.179688 23.71875 11.636719 C 23.546875 10.089844 24.164062 7.792969 25.019531 4.324219 C 29.070312 -11.773438 37.070312 -27.664062 39.816406 -28.523438 C 42.730469 -29.449219 33.535156 -6.382812 40.707031 -3.945312 C 44.140625 -2.78125 51.929688 -18.019531 56.53125 -25.878906 C 55.910156 -14.277344 47.195312 9.472656 54.128906 11.839844 C 58.074219 13.179688 67.683594 -2.128906 71.667969 -8.03125 C 71.667969 -8.203125 71.21875 -8.273438 71.082031 -8.101562 C 69.433594 -6.210938 60.578125 9.027344 55.15625 11.1875 C 49.597656 13.386719 60.890625 -21.828125 58.453125 -26.53125 C 58.144531 -27.113281 56.976562 -27.59375 55.742188 -25.777344 C 52.824219 -20.902344 45.375 -6.210938 41.875 -4.804688 Z M 16.886719 -6.382812 C 14.929688 -5.9375 12.082031 -7.652344 11.601562 -16.40625 C 19.871094 -11.980469 18.464844 -6.761719 16.886719 -6.382812 Z M 16.886719 -6.382812 "/></g></g></g><g fill="#000000" fill-opacity="1"><g transform="translate(30.92115, 73.619453)"><g><path d="M 4.703125 -4.265625 L 4.703125 0 L 4.15625 0 L 4.15625 -2.671875 L 2.640625 -0.515625 L 2.625 -0.515625 L 1.125 -2.609375 L 1.125 0 L 0.59375 0 L 0.59375 -4.265625 L 2.640625 -1.390625 Z M 4.703125 -4.265625 "/></g></g></g><g fill="#000000" fill-opacity="1"><g transform="translate(36.22195, 73.619453)"><g><path d="M 0.34375 -2.0625 C 0.34375 -2.4375 0.4375 -2.785156 0.625 -3.109375 C 0.8125 -3.441406 1.066406 -3.703125 1.390625 -3.890625 C 1.710938 -4.085938 2.066406 -4.1875 2.453125 -4.1875 C 2.828125 -4.1875 3.175781 -4.085938 3.5 -3.890625 C 3.820312 -3.703125 4.078125 -3.441406 4.265625 -3.109375 C 4.460938 -2.785156 4.5625 -2.4375 4.5625 -2.0625 C 4.5625 -1.6875 4.460938 -1.332031 4.265625 -1 C 4.078125 -0.675781 3.820312 -0.421875 3.5 -0.234375 C 3.175781 -0.046875 2.828125 0.046875 2.453125 0.046875 C 2.066406 0.046875 1.710938 -0.046875 1.390625 -0.234375 C 1.066406 -0.421875 0.8125 -0.675781 0.625 -1 C 0.4375 -1.320312 0.34375 -1.675781 0.34375 -2.0625 Z M 0.90625 -2.0625 C 0.90625 -1.78125 0.972656 -1.519531 1.109375 -1.28125 C 1.253906 -1.039062 1.441406 -0.847656 1.671875 -0.703125 C 1.910156 -0.554688 2.171875 -0.484375 2.453125 -0.484375 C 2.734375 -0.484375 2.988281 -0.550781 3.21875 -0.6875 C 3.457031 -0.832031 3.644531 -1.023438 3.78125 -1.265625 C 3.914062 -1.515625 3.984375 -1.78125 3.984375 -2.0625 C 3.984375 -2.351562 3.914062 -2.617188 3.78125 -2.859375 C 3.644531 -3.097656 3.457031 -3.289062 3.21875 -3.4375 C 2.988281 -3.582031 2.734375 -3.65625 2.453125 -3.65625 C 2.171875 -3.65625 1.910156 -3.582031 1.671875 -3.4375 C 1.429688 -3.289062 1.242188 -3.09375 1.109375 -2.84375 C 0.972656 -2.601562 0.90625 -2.34375 0.90625 -2.0625 Z M 0.90625 -2.0625 "/></g></g></g><g fill="#000000" fill-opacity="1"><g transform="translate(41.122473, 73.619453)"><g><path d="M 2.875 0 L 1.90625 -1.53125 C 1.875 -1.519531 1.828125 -1.515625 1.765625 -1.515625 L 1.15625 -1.515625 L 1.15625 0 L 0.59375 0 L 0.59375 -4.140625 L 1.703125 -4.140625 C 1.984375 -4.140625 2.234375 -4.085938 2.453125 -3.984375 C 2.671875 -3.890625 2.84375 -3.742188 2.96875 -3.546875 C 3.09375 -3.359375 3.15625 -3.128906 3.15625 -2.859375 C 3.15625 -2.597656 3.097656 -2.359375 2.984375 -2.140625 C 2.878906 -1.929688 2.707031 -1.773438 2.46875 -1.671875 L 3.515625 0 Z M 1.75 -2.0625 C 2.050781 -2.0625 2.265625 -2.140625 2.390625 -2.296875 C 2.523438 -2.453125 2.59375 -2.628906 2.59375 -2.828125 C 2.59375 -2.953125 2.5625 -3.070312 2.5 -3.1875 C 2.445312 -3.3125 2.359375 -3.410156 2.234375 -3.484375 C 2.117188 -3.566406 1.972656 -3.609375 1.796875 -3.609375 L 1.15625 -3.609375 L 1.15625 -2.0625 Z M 1.75 -2.0625 "/></g></g></g><g fill="#000000" fill-opacity="1"><g transform="translate(44.896501, 73.619453)"><g><path d="M 3.03125 -4.140625 L 3.03125 -3.609375 L 1.921875 -3.609375 L 1.921875 0 L 1.375 0 L 1.375 -3.609375 L 0.296875 -3.609375 L 0.296875 -4.140625 Z M 3.03125 -4.140625 "/></g></g></g><g fill="#000000" fill-opacity="1"><g transform="translate(48.224511, 73.619453)"><g><path d="M 3.84375 -0.359375 C 3.71875 -0.253906 3.519531 -0.160156 3.25 -0.078125 C 2.976562 0.00390625 2.726562 0.046875 2.5 0.046875 C 2.070312 0.046875 1.691406 -0.0390625 1.359375 -0.21875 C 1.035156 -0.394531 0.785156 -0.632812 0.609375 -0.9375 C 0.429688 -1.25 0.34375 -1.597656 0.34375 -1.984375 C 0.34375 -2.441406 0.4375 -2.832031 0.625 -3.15625 C 0.8125 -3.488281 1.066406 -3.742188 1.390625 -3.921875 C 1.710938 -4.097656 2.066406 -4.1875 2.453125 -4.1875 C 2.691406 -4.1875 2.910156 -4.15625 3.109375 -4.09375 C 3.316406 -4.039062 3.503906 -3.96875 3.671875 -3.875 L 3.484375 -3.375 C 3.367188 -3.4375 3.21875 -3.492188 3.03125 -3.546875 C 2.84375 -3.597656 2.675781 -3.625 2.53125 -3.625 C 2.207031 -3.625 1.921875 -3.554688 1.671875 -3.421875 C 1.429688 -3.296875 1.242188 -3.113281 1.109375 -2.875 C 0.972656 -2.632812 0.90625 -2.351562 0.90625 -2.03125 C 0.90625 -1.738281 0.972656 -1.472656 1.109375 -1.234375 C 1.242188 -1.003906 1.429688 -0.828125 1.671875 -0.703125 C 1.921875 -0.578125 2.203125 -0.515625 2.515625 -0.515625 C 2.660156 -0.515625 2.800781 -0.523438 2.9375 -0.546875 C 3.070312 -0.578125 3.1875 -0.617188 3.28125 -0.671875 L 3.28125 -1.5 L 2.453125 -1.5 L 2.453125 -2.03125 L 3.84375 -2.03125 Z M 3.84375 -0.359375 "/></g></g></g><g fill="#000000" fill-opacity="1"><g transform="translate(52.524621, 73.619453)"><g><path d="M 2.765625 -1.09375 L 1.171875 -1.09375 L 0.734375 0 L 0.1875 0 L 1.984375 -4.3125 L 2.03125 -4.3125 L 3.828125 0 L 3.1875 0 Z M 2.578125 -1.5625 L 1.984375 -3.078125 L 1.375 -1.5625 Z M 2.578125 -1.5625 "/></g></g></g><g fill="#000000" fill-opacity="1"><g transform="translate(56.533101, 73.619453)"><g><path d="M 3.84375 -0.359375 C 3.71875 -0.253906 3.519531 -0.160156 3.25 -0.078125 C 2.976562 0.00390625 2.726562 0.046875 2.5 0.046875 C 2.070312 0.046875 1.691406 -0.0390625 1.359375 -0.21875 C 1.035156 -0.394531 0.785156 -0.632812 0.609375 -0.9375 C 0.429688 -1.25 0.34375 -1.597656 0.34375 -1.984375 C 0.34375 -2.441406 0.4375 -2.832031 0.625 -3.15625 C 0.8125 -3.488281 1.066406 -3.742188 1.390625 -3.921875 C 1.710938 -4.097656 2.066406 -4.1875 2.453125 -4.1875 C 2.691406 -4.1875 2.910156 -4.15625 3.109375 -4.09375 C 3.316406 -4.039062 3.503906 -3.96875 3.671875 -3.875 L 3.484375 -3.375 C 3.367188 -3.4375 3.21875 -3.492188 3.03125 -3.546875 C 2.84375 -3.597656 2.675781 -3.625 2.53125 -3.625 C 2.207031 -3.625 1.921875 -3.554688 1.671875 -3.421875 C 1.429688 -3.296875 1.242188 -3.113281 1.109375 -2.875 C 0.972656 -2.632812 0.90625 -2.351562 0.90625 -2.03125 C 0.90625 -1.738281 0.972656 -1.472656 1.109375 -1.234375 C 1.242188 -1.003906 1.429688 -0.828125 1.671875 -0.703125 C 1.921875 -0.578125 2.203125 -0.515625 2.515625 -0.515625 C 2.660156 -0.515625 2.800781 -0.523438 2.9375 -0.546875 C 3.070312 -0.578125 3.1875 -0.617188 3.28125 -0.671875 L 3.28125 -1.5 L 2.453125 -1.5 L 2.453125 -2.03125 L 3.84375 -2.03125 Z M 3.84375 -0.359375 "/></g></g></g><g fill="#000000" fill-opacity="1"><g transform="translate(60.833212, 73.619453)"><g><path d="M 3.28125 -4.140625 L 3.28125 -3.609375 L 1.15625 -3.609375 L 1.15625 -2.34375 L 3.046875 -2.34375 L 3.046875 -1.8125 L 1.15625 -1.8125 L 1.15625 -0.53125 L 3.359375 -0.53125 L 3.359375 0 L 0.59375 0 L 0.59375 -4.140625 Z M 3.28125 -4.140625 "/></g></g></g><g fill="#000000" fill-opacity="1"><g transform="translate(64.567214, 73.619453)"><g/></g></g><g fill="#000000" fill-opacity="1"><g transform="translate(66.374173, 73.619453)"><g><path d="M 1.15625 -4.140625 L 1.15625 0 L 0.59375 0 L 0.59375 -4.140625 Z M 1.15625 -4.140625 "/></g></g></g><g fill="#000000" fill-opacity="1"><g transform="translate(68.118233, 73.619453)"><g><path d="M 4.203125 -4.140625 L 4.203125 0.140625 L 4.1875 0.140625 L 1.140625 -2.9375 L 1.15625 0 L 0.59375 0 L 0.59375 -4.265625 L 0.625 -4.265625 L 3.65625 -1.140625 L 3.640625 -4.140625 Z M 4.203125 -4.140625 "/></g></g></g><g fill="#000000" fill-opacity="1"><g transform="translate(72.910109, 73.619453)"><g><path d="M 3.03125 -4.140625 L 3.03125 -3.609375 L 1.921875 -3.609375 L 1.921875 0 L 1.375 0 L 1.375 -3.609375 L 0.296875 -3.609375 L 0.296875 -4.140625 Z M 3.03125 -4.140625 "/></g></g></g><g fill="#000000" fill-opacity="1"><g transform="translate(76.238119, 73.619453)"><g><path d="M 3.28125 -4.140625 L 3.28125 -3.609375 L 1.15625 -3.609375 L 1.15625 -2.34375 L 3.046875 -2.34375 L 3.046875 -1.8125 L 1.15625 -1.8125 L 1.15625 -0.53125 L 3.359375 -0.53125 L 3.359375 0 L 0.59375 0 L 0.59375 -4.140625 Z M 3.28125 -4.140625 "/></g></g></g><g fill="#000000" fill-opacity="1"><g transform="translate(79.972121, 73.619453)"><g><path d="M 1.15625 -4.140625 L 1.15625 -0.53125 L 3.25 -0.53125 L 3.25 0 L 0.59375 0 L 0.59375 -4.140625 Z M 1.15625 -4.140625 "/></g></g></g><g fill="#000000" fill-opacity="1"><g transform="translate(83.528861, 73.619453)"><g><path d="M 1.15625 -4.140625 L 1.15625 -0.53125 L 3.25 -0.53125 L 3.25 0 L 0.59375 0 L 0.59375 -4.140625 Z M 1.15625 -4.140625 "/></g></g></g><g fill="#000000" fill-opacity="1"><g transform="translate(87.085602, 73.619453)"><g><path d="M 1.15625 -4.140625 L 1.15625 0 L 0.59375 0 L 0.59375 -4.140625 Z M 1.15625 -4.140625 "/></g></g></g><g fill="#000000" fill-opacity="1"><g transform="translate(88.829661, 73.619453)"><g><path d="M 3.84375 -0.359375 C 3.71875 -0.253906 3.519531 -0.160156 3.25 -0.078125 C 2.976562 0.00390625 2.726562 0.046875 2.5 0.046875 C 2.070312 0.046875 1.691406 -0.0390625 1.359375 -0.21875 C 1.035156 -0.394531 0.785156 -0.632812 0.609375 -0.9375 C 0.429688 -1.25 0.34375 -1.597656 0.34375 -1.984375 C 0.34375 -2.441406 0.4375 -2.832031 0.625 -3.15625 C 0.8125 -3.488281 1.066406 -3.742188 1.390625 -3.921875 C 1.710938 -4.097656 2.066406 -4.1875 2.453125 -4.1875 C 2.691406 -4.1875 2.910156 -4.15625 3.109375 -4.09375 C 3.316406 -4.039062 3.503906 -3.96875 3.671875 -3.875 L 3.484375 -3.375 C 3.367188 -3.4375 3.21875 -3.492188 3.03125 -3.546875 C 2.84375 -3.597656 2.675781 -3.625 2.53125 -3.625 C 2.207031 -3.625 1.921875 -3.554688 1.671875 -3.421875 C 1.429688 -3.296875 1.242188 -3.113281 1.109375 -2.875 C 0.972656 -2.632812 0.90625 -2.351562 0.90625 -2.03125 C 0.90625 -1.738281 0.972656 -1.472656 1.109375 -1.234375 C 1.242188 -1.003906 1.429688 -0.828125 1.671875 -0.703125 C 1.921875 -0.578125 2.203125 -0.515625 2.515625 -0.515625 C 2.660156 -0.515625 2.800781 -0.523438 2.9375 -0.546875 C 3.070312 -0.578125 3.1875 -0.617188 3.28125 -0.671875 L 3.28125 -1.5 L 2.453125 -1.5 L 2.453125 -2.03125 L 3.84375 -2.03125 Z M 3.84375 -0.359375 "/></g></g></g><g fill="#000000" fill-opacity="1"><g transform="translate(93.129772, 73.619453)"><g><path d="M 3.28125 -4.140625 L 3.28125 -3.609375 L 1.15625 -3.609375 L 1.15625 -2.34375 L 3.046875 -2.34375 L 3.046875 -1.8125 L 1.15625 -1.8125 L 1.15625 -0.53125 L 3.359375 -0.53125 L 3.359375 0 L 0.59375 0 L 0.59375 -4.140625 Z M 3.28125 -4.140625 "/></g></g></g><g fill="#000000" fill-opacity="1"><g transform="translate(96.863774, 73.619453)"><g><path d="M 4.203125 -4.140625 L 4.203125 0.140625 L 4.1875 0.140625 L 1.140625 -2.9375 L 1.15625 0 L 0.59375 0 L 0.59375 -4.265625 L 0.625 -4.265625 L 3.65625 -1.140625 L 3.640625 -4.140625 Z M 4.203125 -4.140625 "/></g></g></g><g fill="#000000" fill-opacity="1"><g transform="translate(101.65565, 73.619453)"><g><path d="M 3.03125 -4.140625 L 3.03125 -3.609375 L 1.921875 -3.609375 L 1.921875 0 L 1.375 0 L 1.375 -3.609375 L 0.296875 -3.609375 L 0.296875 -4.140625 Z M 3.03125 -4.140625 "/></g></g></g><g fill="#000000" fill-opacity="1"><g transform="translate(104.98366, 73.619453)"><g/></g></g><g fill="#000000" fill-opacity="1"><g transform="translate(106.793532, 73.619453)"><g><path d="M 1.703125 -4.140625 C 2.148438 -4.140625 2.5 -4.023438 2.75 -3.796875 C 3.007812 -3.566406 3.140625 -3.253906 3.140625 -2.859375 C 3.140625 -2.617188 3.09375 -2.398438 3 -2.203125 C 2.90625 -2.003906 2.753906 -1.835938 2.546875 -1.703125 C 2.335938 -1.578125 2.078125 -1.515625 1.765625 -1.515625 L 1.15625 -1.515625 L 1.15625 0 L 0.59375 0 L 0.59375 -4.140625 Z M 1.765625 -2.0625 C 1.960938 -2.0625 2.125 -2.101562 2.25 -2.1875 C 2.375 -2.269531 2.460938 -2.367188 2.515625 -2.484375 C 2.566406 -2.609375 2.59375 -2.726562 2.59375 -2.84375 C 2.59375 -3.039062 2.523438 -3.21875 2.390625 -3.375 C 2.265625 -3.53125 2.066406 -3.609375 1.796875 -3.609375 L 1.15625 -3.609375 L 1.15625 -2.0625 Z M 1.765625 -2.0625 "/></g></g></g><g fill="#000000" fill-opacity="1"><g transform="translate(110.195878, 73.619453)"><g><path d="M 2.875 0 L 1.90625 -1.53125 C 1.875 -1.519531 1.828125 -1.515625 1.765625 -1.515625 L 1.15625 -1.515625 L 1.15625 0 L 0.59375 0 L 0.59375 -4.140625 L 1.703125 -4.140625 C 1.984375 -4.140625 2.234375 -4.085938 2.453125 -3.984375 C 2.671875 -3.890625 2.84375 -3.742188 2.96875 -3.546875 C 3.09375 -3.359375 3.15625 -3.128906 3.15625 -2.859375 C 3.15625 -2.597656 3.097656 -2.359375 2.984375 -2.140625 C 2.878906 -1.929688 2.707031 -1.773438 2.46875 -1.671875 L 3.515625 0 Z M 1.75 -2.0625 C 2.050781 -2.0625 2.265625 -2.140625 2.390625 -2.296875 C 2.523438 -2.453125 2.59375 -2.628906 2.59375 -2.828125 C 2.59375 -2.953125 2.5625 -3.070312 2.5 -3.1875 C 2.445312 -3.3125 2.359375 -3.410156 2.234375 -3.484375 C 2.117188 -3.566406 1.972656 -3.609375 1.796875 -3.609375 L 1.15625 -3.609375 L 1.15625 -2.0625 Z M 1.75 -2.0625 "/></g></g></g><g fill="#000000" fill-opacity="1"><g transform="translate(113.969906, 73.619453)"><g><path d="M 0.34375 -2.0625 C 0.34375 -2.4375 0.4375 -2.785156 0.625 -3.109375 C 0.8125 -3.441406 1.066406 -3.703125 1.390625 -3.890625 C 1.710938 -4.085938 2.066406 -4.1875 2.453125 -4.1875 C 2.828125 -4.1875 3.175781 -4.085938 3.5 -3.890625 C 3.820312 -3.703125 4.078125 -3.441406 4.265625 -3.109375 C 4.460938 -2.785156 4.5625 -2.4375 4.5625 -2.0625 C 4.5625 -1.6875 4.460938 -1.332031 4.265625 -1 C 4.078125 -0.675781 3.820312 -0.421875 3.5 -0.234375 C 3.175781 -0.046875 2.828125 0.046875 2.453125 0.046875 C 2.066406 0.046875 1.710938 -0.046875 1.390625 -0.234375 C 1.066406 -0.421875 0.8125 -0.675781 0.625 -1 C 0.4375 -1.320312 0.34375 -1.675781 0.34375 -2.0625 Z M 0.90625 -2.0625 C 0.90625 -1.78125 0.972656 -1.519531 1.109375 -1.28125 C 1.253906 -1.039062 1.441406 -0.847656 1.671875 -0.703125 C 1.910156 -0.554688 2.171875 -0.484375 2.453125 -0.484375 C 2.734375 -0.484375 2.988281 -0.550781 3.21875 -0.6875 C 3.457031 -0.832031 3.644531 -1.023438 3.78125 -1.265625 C 3.914062 -1.515625 3.984375 -1.78125 3.984375 -2.0625 C 3.984375 -2.351562 3.914062 -2.617188 3.78125 -2.859375 C 3.644531 -3.097656 3.457031 -3.289062 3.21875 -3.4375 C 2.988281 -3.582031 2.734375 -3.65625 2.453125 -3.65625 C 2.171875 -3.65625 1.910156 -3.582031 1.671875 -3.4375 C 1.429688 -3.289062 1.242188 -3.09375 1.109375 -2.84375 C 0.972656 -2.601562 0.90625 -2.34375 0.90625 -2.0625 Z M 0.90625 -2.0625 "/></g></g></g><g fill="#000000" fill-opacity="1"><g transform="translate(118.870429, 73.619453)"><g><path d="M 3.625 -0.3125 C 3.5 -0.21875 3.332031 -0.132812 3.125 -0.0625 C 2.914062 0.0078125 2.691406 0.046875 2.453125 0.046875 C 2.035156 0.046875 1.664062 -0.046875 1.34375 -0.234375 C 1.019531 -0.421875 0.769531 -0.671875 0.59375 -0.984375 C 0.425781 -1.304688 0.34375 -1.65625 0.34375 -2.03125 C 0.34375 -2.4375 0.425781 -2.800781 0.59375 -3.125 C 0.769531 -3.457031 1.015625 -3.71875 1.328125 -3.90625 C 1.640625 -4.09375 1.992188 -4.1875 2.390625 -4.1875 C 2.617188 -4.1875 2.832031 -4.15625 3.03125 -4.09375 C 3.238281 -4.03125 3.421875 -3.945312 3.578125 -3.84375 L 3.359375 -3.328125 C 3.035156 -3.546875 2.71875 -3.65625 2.40625 -3.65625 C 2.132812 -3.65625 1.882812 -3.582031 1.65625 -3.4375 C 1.4375 -3.289062 1.257812 -3.097656 1.125 -2.859375 C 0.988281 -2.617188 0.921875 -2.351562 0.921875 -2.0625 C 0.921875 -1.769531 0.976562 -1.5 1.09375 -1.25 C 1.21875 -1.007812 1.394531 -0.820312 1.625 -0.6875 C 1.863281 -0.550781 2.132812 -0.484375 2.4375 -0.484375 C 2.800781 -0.484375 3.117188 -0.59375 3.390625 -0.8125 Z M 3.625 -0.3125 "/></g></g></g><g fill="#000000" fill-opacity="1"><g transform="translate(122.838877, 73.619453)"><g><path d="M 3.28125 -4.140625 L 3.28125 -3.609375 L 1.15625 -3.609375 L 1.15625 -2.34375 L 3.046875 -2.34375 L 3.046875 -1.8125 L 1.15625 -1.8125 L 1.15625 -0.53125 L 3.359375 -0.53125 L 3.359375 0 L 0.59375 0 L 0.59375 -4.140625 Z M 3.28125 -4.140625 "/></g></g></g><g fill="#000000" fill-opacity="1"><g transform="translate(126.572879, 73.619453)"><g><path d="M 2.734375 -3.390625 C 2.585938 -3.472656 2.425781 -3.539062 2.25 -3.59375 C 2.082031 -3.644531 1.925781 -3.671875 1.78125 -3.671875 C 1.5625 -3.671875 1.382812 -3.617188 1.25 -3.515625 C 1.113281 -3.410156 1.046875 -3.269531 1.046875 -3.09375 C 1.046875 -2.925781 1.125 -2.785156 1.28125 -2.671875 C 1.4375 -2.566406 1.65625 -2.460938 1.9375 -2.359375 C 2.15625 -2.273438 2.335938 -2.1875 2.484375 -2.09375 C 2.628906 -2.007812 2.75 -1.890625 2.84375 -1.734375 C 2.945312 -1.578125 3 -1.375 3 -1.125 C 3 -0.90625 2.941406 -0.707031 2.828125 -0.53125 C 2.722656 -0.351562 2.566406 -0.210938 2.359375 -0.109375 C 2.148438 -0.00390625 1.910156 0.046875 1.640625 0.046875 C 1.390625 0.046875 1.144531 0.00390625 0.90625 -0.078125 C 0.664062 -0.160156 0.457031 -0.265625 0.28125 -0.390625 L 0.53125 -0.828125 C 0.664062 -0.722656 0.832031 -0.632812 1.03125 -0.5625 C 1.226562 -0.488281 1.414062 -0.453125 1.59375 -0.453125 C 1.8125 -0.453125 2.003906 -0.507812 2.171875 -0.625 C 2.335938 -0.738281 2.421875 -0.90625 2.421875 -1.125 C 2.421875 -1.3125 2.347656 -1.460938 2.203125 -1.578125 C 2.066406 -1.691406 1.875 -1.800781 1.625 -1.90625 C 1.394531 -1.988281 1.203125 -2.070312 1.046875 -2.15625 C 0.890625 -2.238281 0.753906 -2.351562 0.640625 -2.5 C 0.535156 -2.644531 0.484375 -2.828125 0.484375 -3.046875 C 0.484375 -3.378906 0.59375 -3.644531 0.8125 -3.84375 C 1.039062 -4.039062 1.335938 -4.144531 1.703125 -4.15625 C 2.148438 -4.15625 2.5625 -4.046875 2.9375 -3.828125 Z M 2.734375 -3.390625 "/></g></g></g><g fill="#000000" fill-opacity="1"><g transform="translate(129.900889, 73.619453)"><g><path d="M 2.734375 -3.390625 C 2.585938 -3.472656 2.425781 -3.539062 2.25 -3.59375 C 2.082031 -3.644531 1.925781 -3.671875 1.78125 -3.671875 C 1.5625 -3.671875 1.382812 -3.617188 1.25 -3.515625 C 1.113281 -3.410156 1.046875 -3.269531 1.046875 -3.09375 C 1.046875 -2.925781 1.125 -2.785156 1.28125 -2.671875 C 1.4375 -2.566406 1.65625 -2.460938 1.9375 -2.359375 C 2.15625 -2.273438 2.335938 -2.1875 2.484375 -2.09375 C 2.628906 -2.007812 2.75 -1.890625 2.84375 -1.734375 C 2.945312 -1.578125 3 -1.375 3 -1.125 C 3 -0.90625 2.941406 -0.707031 2.828125 -0.53125 C 2.722656 -0.351562 2.566406 -0.210938 2.359375 -0.109375 C 2.148438 -0.00390625 1.910156 0.046875 1.640625 0.046875 C 1.390625 0.046875 1.144531 0.00390625 0.90625 -0.078125 C 0.664062 -0.160156 0.457031 -0.265625 0.28125 -0.390625 L 0.53125 -0.828125 C 0.664062 -0.722656 0.832031 -0.632812 1.03125 -0.5625 C 1.226562 -0.488281 1.414062 -0.453125 1.59375 -0.453125 C 1.8125 -0.453125 2.003906 -0.507812 2.171875 -0.625 C 2.335938 -0.738281 2.421875 -0.90625 2.421875 -1.125 C 2.421875 -1.3125 2.347656 -1.460938 2.203125 -1.578125 C 2.066406 -1.691406 1.875 -1.800781 1.625 -1.90625 C 1.394531 -1.988281 1.203125 -2.070312 1.046875 -2.15625 C 0.890625 -2.238281 0.753906 -2.351562 0.640625 -2.5 C 0.535156 -2.644531 0.484375 -2.828125 0.484375 -3.046875 C 0.484375 -3.378906 0.59375 -3.644531 0.8125 -3.84375 C 1.039062 -4.039062 1.335938 -4.144531 1.703125 -4.15625 C 2.148438 -4.15625 2.5625 -4.046875 2.9375 -3.828125 Z M 2.734375 -3.390625 "/></g></g></g><g fill="#000000" fill-opacity="1"><g transform="translate(133.228898, 73.619453)"><g><path d="M 1.15625 -4.140625 L 1.15625 0 L 0.59375 0 L 0.59375 -4.140625 Z M 1.15625 -4.140625 "/></g></g></g><g fill="#000000" fill-opacity="1"><g transform="translate(134.972958, 73.619453)"><g><path d="M 4.203125 -4.140625 L 4.203125 0.140625 L 4.1875 0.140625 L 1.140625 -2.9375 L 1.15625 0 L 0.59375 0 L 0.59375 -4.265625 L 0.625 -4.265625 L 3.65625 -1.140625 L 3.640625 -4.140625 Z M 4.203125 -4.140625 "/></g></g></g><g fill="#000000" fill-opacity="1"><g transform="translate(139.764834, 73.619453)"><g><path d="M 3.84375 -0.359375 C 3.71875 -0.253906 3.519531 -0.160156 3.25 -0.078125 C 2.976562 0.00390625 2.726562 0.046875 2.5 0.046875 C 2.070312 0.046875 1.691406 -0.0390625 1.359375 -0.21875 C 1.035156 -0.394531 0.785156 -0.632812 0.609375 -0.9375 C 0.429688 -1.25 0.34375 -1.597656 0.34375 -1.984375 C 0.34375 -2.441406 0.4375 -2.832031 0.625 -3.15625 C 0.8125 -3.488281 1.066406 -3.742188 1.390625 -3.921875 C 1.710938 -4.097656 2.066406 -4.1875 2.453125 -4.1875 C 2.691406 -4.1875 2.910156 -4.15625 3.109375 -4.09375 C 3.316406 -4.039062 3.503906 -3.96875 3.671875 -3.875 L 3.484375 -3.375 C 3.367188 -3.4375 3.21875 -3.492188 3.03125 -3.546875 C 2.84375 -3.597656 2.675781 -3.625 2.53125 -3.625 C 2.207031 -3.625 1.921875 -3.554688 1.671875 -3.421875 C 1.429688 -3.296875 1.242188 -3.113281 1.109375 -2.875 C 0.972656 -2.632812 0.90625 -2.351562 0.90625 -2.03125 C 0.90625 -1.738281 0.972656 -1.472656 1.109375 -1.234375 C 1.242188 -1.003906 1.429688 -0.828125 1.671875 -0.703125 C 1.921875 -0.578125 2.203125 -0.515625 2.515625 -0.515625 C 2.660156 -0.515625 2.800781 -0.523438 2.9375 -0.546875 C 3.070312 -0.578125 3.1875 -0.617188 3.28125 -0.671875 L 3.28125 -1.5 L 2.453125 -1.5 L 2.453125 -2.03125 L 3.84375 -2.03125 Z M 3.84375 -0.359375 "/></g></g></g><g fill="#000000" fill-opacity="1"><g transform="translate(144.064945, 73.619453)"><g/></g></g><g fill="#000000" fill-opacity="1"><g transform="translate(145.871904, 73.619453)"><g><path d="M 2.765625 -1.09375 L 1.171875 -1.09375 L 0.734375 0 L 0.1875 0 L 1.984375 -4.3125 L 2.03125 -4.3125 L 3.828125 0 L 3.1875 0 Z M 2.578125 -1.5625 L 1.984375 -3.078125 L 1.375 -1.5625 Z M 2.578125 -1.5625 "/></g></g></g><g fill="#000000" fill-opacity="1"><g transform="translate(149.880384, 73.619453)"><g><path d="M 2.734375 -3.390625 C 2.585938 -3.472656 2.425781 -3.539062 2.25 -3.59375 C 2.082031 -3.644531 1.925781 -3.671875 1.78125 -3.671875 C 1.5625 -3.671875 1.382812 -3.617188 1.25 -3.515625 C 1.113281 -3.410156 1.046875 -3.269531 1.046875 -3.09375 C 1.046875 -2.925781 1.125 -2.785156 1.28125 -2.671875 C 1.4375 -2.566406 1.65625 -2.460938 1.9375 -2.359375 C 2.15625 -2.273438 2.335938 -2.1875 2.484375 -2.09375 C 2.628906 -2.007812 2.75 -1.890625 2.84375 -1.734375 C 2.945312 -1.578125 3 -1.375 3 -1.125 C 3 -0.90625 2.941406 -0.707031 2.828125 -0.53125 C 2.722656 -0.351562 2.566406 -0.210938 2.359375 -0.109375 C 2.148438 -0.00390625 1.910156 0.046875 1.640625 0.046875 C 1.390625 0.046875 1.144531 0.00390625 0.90625 -0.078125 C 0.664062 -0.160156 0.457031 -0.265625 0.28125 -0.390625 L 0.53125 -0.828125 C 0.664062 -0.722656 0.832031 -0.632812 1.03125 -0.5625 C 1.226562 -0.488281 1.414062 -0.453125 1.59375 -0.453125 C 1.8125 -0.453125 2.003906 -0.507812 2.171875 -0.625 C 2.335938 -0.738281 2.421875 -0.90625 2.421875 -1.125 C 2.421875 -1.3125 2.347656 -1.460938 2.203125 -1.578125 C 2.066406 -1.691406 1.875 -1.800781 1.625 -1.90625 C 1.394531 -1.988281 1.203125 -2.070312 1.046875 -2.15625 C 0.890625 -2.238281 0.753906 -2.351562 0.640625 -2.5 C 0.535156 -2.644531 0.484375 -2.828125 0.484375 -3.046875 C 0.484375 -3.378906 0.59375 -3.644531 0.8125 -3.84375 C 1.039062 -4.039062 1.335938 -4.144531 1.703125 -4.15625 C 2.148438 -4.15625 2.5625 -4.046875 2.9375 -3.828125 Z M 2.734375 -3.390625 "/></g></g></g><g fill="#000000" fill-opacity="1"><g transform="translate(153.208394, 73.619453)"><g><path d="M 2.734375 -3.390625 C 2.585938 -3.472656 2.425781 -3.539062 2.25 -3.59375 C 2.082031 -3.644531 1.925781 -3.671875 1.78125 -3.671875 C 1.5625 -3.671875 1.382812 -3.617188 1.25 -3.515625 C 1.113281 -3.410156 1.046875 -3.269531 1.046875 -3.09375 C 1.046875 -2.925781 1.125 -2.785156 1.28125 -2.671875 C 1.4375 -2.566406 1.65625 -2.460938 1.9375 -2.359375 C 2.15625 -2.273438 2.335938 -2.1875 2.484375 -2.09375 C 2.628906 -2.007812 2.75 -1.890625 2.84375 -1.734375 C 2.945312 -1.578125 3 -1.375 3 -1.125 C 3 -0.90625 2.941406 -0.707031 2.828125 -0.53125 C 2.722656 -0.351562 2.566406 -0.210938 2.359375 -0.109375 C 2.148438 -0.00390625 1.910156 0.046875 1.640625 0.046875 C 1.390625 0.046875 1.144531 0.00390625 0.90625 -0.078125 C 0.664062 -0.160156 0.457031 -0.265625 0.28125 -0.390625 L 0.53125 -0.828125 C 0.664062 -0.722656 0.832031 -0.632812 1.03125 -0.5625 C 1.226562 -0.488281 1.414062 -0.453125 1.59375 -0.453125 C 1.8125 -0.453125 2.003906 -0.507812 2.171875 -0.625 C 2.335938 -0.738281 2.421875 -0.90625 2.421875 -1.125 C 2.421875 -1.3125 2.347656 -1.460938 2.203125 -1.578125 C 2.066406 -1.691406 1.875 -1.800781 1.625 -1.90625 C 1.394531 -1.988281 1.203125 -2.070312 1.046875 -2.15625 C 0.890625 -2.238281 0.753906 -2.351562 0.640625 -2.5 C 0.535156 -2.644531 0.484375 -2.828125 0.484375 -3.046875 C 0.484375 -3.378906 0.59375 -3.644531 0.8125 -3.84375 C 1.039062 -4.039062 1.335938 -4.144531 1.703125 -4.15625 C 2.148438 -4.15625 2.5625 -4.046875 2.9375 -3.828125 Z M 2.734375 -3.390625 "/></g></g></g><g fill="#000000" fill-opacity="1"><g transform="translate(156.536404, 73.619453)"><g><path d="M 1.15625 -4.140625 L 1.15625 0 L 0.59375 0 L 0.59375 -4.140625 Z M 1.15625 -4.140625 "/></g></g></g><g fill="#000000" fill-opacity="1"><g transform="translate(158.280463, 73.619453)"><g><path d="M 2.734375 -3.390625 C 2.585938 -3.472656 2.425781 -3.539062 2.25 -3.59375 C 2.082031 -3.644531 1.925781 -3.671875 1.78125 -3.671875 C 1.5625 -3.671875 1.382812 -3.617188 1.25 -3.515625 C 1.113281 -3.410156 1.046875 -3.269531 1.046875 -3.09375 C 1.046875 -2.925781 1.125 -2.785156 1.28125 -2.671875 C 1.4375 -2.566406 1.65625 -2.460938 1.9375 -2.359375 C 2.15625 -2.273438 2.335938 -2.1875 2.484375 -2.09375 C 2.628906 -2.007812 2.75 -1.890625 2.84375 -1.734375 C 2.945312 -1.578125 3 -1.375 3 -1.125 C 3 -0.90625 2.941406 -0.707031 2.828125 -0.53125 C 2.722656 -0.351562 2.566406 -0.210938 2.359375 -0.109375 C 2.148438 -0.00390625 1.910156 0.046875 1.640625 0.046875 C 1.390625 0.046875 1.144531 0.00390625 0.90625 -0.078125 C 0.664062 -0.160156 0.457031 -0.265625 0.28125 -0.390625 L 0.53125 -0.828125 C 0.664062 -0.722656 0.832031 -0.632812 1.03125 -0.5625 C 1.226562 -0.488281 1.414062 -0.453125 1.59375 -0.453125 C 1.8125 -0.453125 2.003906 -0.507812 2.171875 -0.625 C 2.335938 -0.738281 2.421875 -0.90625 2.421875 -1.125 C 2.421875 -1.3125 2.347656 -1.460938 2.203125 -1.578125 C 2.066406 -1.691406 1.875 -1.800781 1.625 -1.90625 C 1.394531 -1.988281 1.203125 -2.070312 1.046875 -2.15625 C 0.890625 -2.238281 0.753906 -2.351562 0.640625 -2.5 C 0.535156 -2.644531 0.484375 -2.828125 0.484375 -3.046875 C 0.484375 -3.378906 0.59375 -3.644531 0.8125 -3.84375 C 1.039062 -4.039062 1.335938 -4.144531 1.703125 -4.15625 C 2.148438 -4.15625 2.5625 -4.046875 2.9375 -3.828125 Z M 2.734375 -3.390625 "/></g></g></g><g fill="#000000" fill-opacity="1"><g transform="translate(161.608473, 73.619453)"><g><path d="M 3.03125 -4.140625 L 3.03125 -3.609375 L 1.921875 -3.609375 L 1.921875 0 L 1.375 0 L 1.375 -3.609375 L 0.296875 -3.609375 L 0.296875 -4.140625 Z M 3.03125 -4.140625 "/></g></g></g><g fill="#000000" fill-opacity="1"><g transform="translate(164.936483, 73.619453)"><g><path d="M 2.765625 -1.09375 L 1.171875 -1.09375 L 0.734375 0 L 0.1875 0 L 1.984375 -4.3125 L 2.03125 -4.3125 L 3.828125 0 L 3.1875 0 Z M 2.578125 -1.5625 L 1.984375 -3.078125 L 1.375 -1.5625 Z M 2.578125 -1.5625 "/></g></g></g><g fill="#000000" fill-opacity="1"><g transform="translate(168.944963, 73.619453)"><g><path d="M 4.203125 -4.140625 L 4.203125 0.140625 L 4.1875 0.140625 L 1.140625 -2.9375 L 1.15625 0 L 0.59375 0 L 0.59375 -4.265625 L 0.625 -4.265625 L 3.65625 -1.140625 L 3.640625 -4.140625 Z M 4.203125 -4.140625 "/></g></g></g><g fill="#000000" fill-opacity="1"><g transform="translate(173.736839, 73.619453)"><g><path d="M 3.03125 -4.140625 L 3.03125 -3.609375 L 1.921875 -3.609375 L 1.921875 0 L 1.375 0 L 1.375 -3.609375 L 0.296875 -3.609375 L 0.296875 -4.140625 Z M 3.03125 -4.140625 "/></g></g></g><g fill="#000000" fill-opacity="1"><g transform="translate(99.376837, 62.750537)"><g><path d="M 4.152344 2.058594 C -0.242188 4.90625 1.886719 -5.558594 2.78125 -10.777344 C 3.019531 -12.183594 0.960938 -11.808594 0.242188 -9.953125 C -0.273438 -8.203125 -1.097656 -2.023438 -0.410156 0.480469 C 0.273438 3.363281 2.609375 3.878906 4.769531 2.230469 C 7.859375 -0.0703125 11.464844 -5.59375 13.351562 -8.066406 C 13.351562 -8.238281 12.90625 -8.238281 12.769531 -8.101562 C 11.292969 -6.210938 7.105469 0.101562 4.152344 2.058594 Z M 2.128906 -13.832031 C 3.125 -13.832031 3.605469 -16.335938 2.710938 -16.613281 C 1.304688 -16.75 0.925781 -13.832031 2.128906 -13.832031 Z M 2.128906 -13.832031 "/></g></g></g><g fill="#000000" fill-opacity="1"><g transform="translate(112.110623, 62.750537)"><g><path d="M 15.308594 -8.03125 C 15.480469 -8.273438 15.066406 -8.410156 14.65625 -8.066406 C 9.542969 -0.582031 5.355469 4.394531 3.15625 3.742188 C 0.480469 2.953125 5.21875 -4.839844 3.945312 -5.765625 C 3.878906 -5.835938 3.363281 -6.144531 0.722656 -8.167969 C 3.570312 -12.289062 4.632812 -14.722656 2.710938 -15.582031 C -0.824219 -16.957031 -3.535156 -11.566406 -0.960938 -8.785156 C -0.550781 -8.375 1.785156 -6.726562 2.503906 -6.179688 C 1.0625 -3.707031 -0.515625 0.445312 1.132812 3.15625 C 1.683594 4.050781 2.746094 4.460938 3.261719 4.425781 C 6.316406 4.222656 10.605469 -1.234375 15.308594 -8.03125 Z M 0.273438 -8.511719 C -1.441406 -9.816406 0.960938 -15.71875 2.539062 -15.035156 C 4.152344 -14.347656 2.164062 -11.292969 0.273438 -8.511719 Z M 0.273438 -8.511719 "/></g></g></g><g fill="#000000" fill-opacity="1"><g transform="translate(126.76649, 62.750537)"><g><path d="M 9.300781 2.058594 C 4.394531 5.421875 8.066406 -9.816406 10.332031 -13.59375 C 10.539062 -14.414062 8.546875 -14.863281 7.859375 -13.351562 L 7.550781 -12.734375 C 5.628906 -13.558594 1.132812 -12.941406 0 -8.203125 C -0.789062 -4.839844 0.550781 -2.539062 2.265625 -2.917969 C 3.226562 -3.125 4.324219 -5.21875 6.660156 -9.714844 C 4.324219 -3.707031 4.566406 6.179688 9.917969 2.230469 C 13.007812 -0.0703125 16.613281 -5.59375 18.5 -8.066406 C 18.5 -8.238281 18.054688 -8.238281 17.917969 -8.101562 C 16.441406 -6.210938 12.289062 0.136719 9.300781 2.058594 Z M 7.34375 -12.253906 C 5.628906 -9.0625 3.261719 -4.152344 2.503906 -3.605469 C 0.996094 -5.355469 3.019531 -13.96875 7.34375 -12.253906 Z M 7.34375 -12.253906 "/></g></g></g></svg>